<svg xmlns="http://www.w3.org/2000/svg" xmlns:xlink="http://www.w3.org/1999/xlink" viewBox="0 0 100 125" version="1.1" x="0px" y="0px">
	<title>X-Wing silhouette</title>
	<desc>Created with Sketch.</desc>
	<g stroke="none" stroke-width="1" fill="none" fill-rule="evenodd">
		<g fill="#000000" transform="rotate(90 50 62.5)">
			<polygon points="48.403125 10.5404663 50.8242188 10.5404663 52.4476929 20.6668701 54.3413086 55.6402588 54.7156982 59.555481 54.9107056 59.6824341 55.1608276 62.7376099 61.0725277 62.7376099 61.2104302 65.6586304 64.8997681 65.6586304 65.473061 66.112958 79.6326222 66.2432861 79.6326222 63.1209106 79.4147339 62.961731 79.4147339 61.6908569 80.4649658 61.5079346 80.4649658 49.4663086 80.7232056 49.1262817 80.7232056 39.6771851 80.4649658 39.6135864 79.9457397 39.4202271 80.2227783 38.6887817 80.7232056 38.8894043 80.0233154 36.6294556 80.8053589 36.6294556 80.9547729 32.0469971 81.1682129 32.0469971 81.3334351 36.6294556 82.2105713 36.6294556 81.4429932 38.8894043 82.0485229 38.6887817 82.2105713 39.355957 81.7097778 39.6135864 81.4429932 39.6771851 81.4429932 49.1262817 81.7097778 49.4663086 81.7097778 61.5079346 82.7640991 61.6908569 82.7640991 62.961731 82.5812378 63.1209106 82.5812378 64.0404053 82.8346558 64.2324219 82.9835363 66.2432861 82.9835363 70.5326538 83.4619141 70.5326538 83.4619141 74.0159302 82.8346558 74.0159302 82.8346558 77.5088501 82.2897339 77.5805664 82.2897339 78.2697144 82.4608154 78.7562256 80.0233154 78.7562256 80.2227783 78.2697144 80.2227783 77.5805664 79.7169189 77.5088501 79.7169189 77.1532593 65.473061 80.682373 65.473061 79.9788818 59.6110229 79.9788818 59.373269 87.3736572 59.6110229 89.3823853 59.373269 92.2678223 55.5124512 92.2678223 55.3645489 89.3823853 55.5124512 87.3736572 55.5124512 80.3812866 54.7156982 80.3812866 55.1608276 80.8805542 54.3413086 83.649292 44.9998917 83.649292 44.3831787 80.802063 44.9998917 80.3812866 43.8970947 80.3812866 43.8970947 87.3736572 44.0644531 89.3823853 43.8970947 92.2678223 39.7954712 92.2678223 39.6257935 89.3823853 39.7954712 87.3736572 39.7008057 80.1956229 34.502255 80.1956229 33.9262695 80.682373 19.7939453 77.3071289 19.7939453 77.6890259 19.2693481 77.6890259 19.2693481 78.5170898 19.4158325 79.0209961 17.020752 79.0209961 17.020752 78.5170898 17.3009033 78.5170898 17.3009033 77.8480225 16.7020874 77.5805664 16.5955811 74.3649292 16.1030884 74.2068481 16.1030884 70.776001 16.4189453 70.776001 16.5955811 64.4475708 16.8597412 64.303772 16.8597412 63.3109741 16.5955811 63.1209106 16.5955811 62.0252075 16.7929688 61.6908569 17.5837402 61.6908569 17.5837402 49.5823364 17.9023438 49.2127686 18.0026245 39.8434448 17.3009033 39.355957 17.4650269 38.6887817 18.0026245 38.8894043 17.4650269 37.1983032 18.0751953 36.9938354 18.2176514 32.2172241 18.5228882 32.2172241 18.6328735 36.9938354 19.2693481 37.1983032 18.6328735 38.8894043 19.2693481 38.6887817 19.4158325 39.355957 18.6328735 39.8434448 18.6328735 49.2127686 18.9298096 49.5823364 18.8475952 61.6908569 19.6936035 61.6908569 19.9957275 62.0252075 19.9957275 63.1209106 19.6936035 63.3109741 19.6936035 64.2324219 19.8773804 65.0031738 19.7939453 66.4726563 33.9262695 66.2432861 35.0771484 65.6586304 38.1589355 65.5739136 38.1589355 63.1895142 39.0626221 62.7376099 44.2439575 62.7376099 44.4656982 59.6824341 44.640625 59.555481 44.9998917 55.6402588 47.0545044 20.6668701"/>
		</g>
	</g>
	</svg>